<svg
        xmlns="http://www.w3.org/2000/svg"
        width="65"
        height="60"
        viewBox="0 0 65 60"
        fill="none"
      >
        <path
          fillRule="evenodd"
          clipRule="evenodd"
          d="M27.7257 35.3256C27.7438 34.6007 27.9757 33.8973 28.3924 33.3039C28.8091 32.7104 29.392 32.2534 30.0677 31.9903C30.7435 31.7272 31.4819 31.6697 32.1902 31.8251C32.8985 31.9805 33.545 32.3419 34.0485 32.8637C34.552 33.3855 34.8901 34.0446 35.02 34.758C35.15 35.4714 35.0662 36.2073 34.7791 36.8732C34.492 37.5391 34.0145 38.1052 33.4065 38.5005C32.7985 38.8957 32.0873 39.1024 31.3622 39.0945C30.8691 39.11 30.3782 39.0221 29.9211 38.8364C29.464 38.6507 29.0509 38.3714 28.7083 38.0164C28.3658 37.6613 28.1013 37.2385 27.9321 36.7751C27.7629 36.3116 27.6926 35.8179 27.7257 35.3256ZM28.8072 29.6134L28.7636 28.5385C28.7126 27.3655 28.8999 26.1943 29.314 25.0956C29.7281 23.9969 30.3604 22.9935 31.1729 22.1459C32.4768 20.5097 33.5557 19.1726 33.5557 17.8051C33.5557 16.3873 32.6291 15.3799 30.548 15.3429C29.1073 15.3644 27.7023 15.794 26.4959 16.5819L25.0847 12.081C27.1993 10.9588 29.5615 10.3848 31.9553 10.4117C37.3828 10.4117 39.9113 13.422 39.9113 16.8427C39.9113 19.951 37.8991 22.0056 36.337 23.7477C35.6668 24.4202 35.138 25.2201 34.7817 26.1002C34.4254 26.9803 34.249 27.9227 34.2626 28.8721V29.6174L28.8072 29.6134ZM46.7117 60L44.8808 56.8454C43.0699 53.6841 41.439 50.7916 40.2475 48.6378H5.79692C5.1362 48.6395 4.48161 48.5111 3.87054 48.2598C3.25947 48.0085 2.70387 47.6393 2.2355 47.1733C1.76714 46.7073 1.39518 46.1536 1.14085 45.5437C0.886514 44.9339 0.754797 44.28 0.753235 43.6193V5.04633C0.754286 3.70874 1.28593 2.42619 2.2315 1.48013C3.17707 0.534059 4.45933 0.00175265 5.79692 0H59.1898C59.8543 0.000173698 60.5123 0.131266 61.1261 0.385792C61.7399 0.640319 62.2975 1.01329 62.7671 1.4834C63.2367 1.9535 63.6091 2.51152 63.863 3.12559C64.1169 3.73965 64.2473 4.39774 64.2467 5.06222V43.6232C64.2452 44.2851 64.1131 44.9401 63.8579 45.5508C63.6027 46.1614 63.2296 46.7158 62.7598 47.182C62.29 47.6482 61.7329 48.0171 61.1203 48.2676C60.5077 48.5181 59.8516 48.6453 59.1898 48.6418H53.1268C50.9849 52.4649 48.3757 57.0387 48.3757 57.0387L46.7117 60ZM5.79692 3.89992C5.64265 3.89764 5.48947 3.926 5.34624 3.98334C5.20301 4.04068 5.07259 4.12588 4.96251 4.23398C4.85244 4.34208 4.7649 4.47096 4.70499 4.61313C4.64507 4.7553 4.61395 4.90794 4.61344 5.06222V43.6232C4.61728 43.9334 4.74409 44.2293 4.96601 44.446C5.18792 44.6627 5.48677 44.7825 5.79692 44.7789H42.5086L43.0699 45.7704C44.1514 47.6754 45.5229 50.0874 46.6772 52.1393C47.7522 50.2753 49.1263 47.8197 50.3071 45.7466L50.8684 44.7789H59.1898C59.5011 44.7811 59.8008 44.6614 60.025 44.4455C60.2491 44.2295 60.3798 43.9344 60.3892 43.6232V5.04633C60.3775 4.73683 60.2458 4.44405 60.0219 4.23004C59.798 4.01604 59.4995 3.89763 59.1898 3.89992H5.79692Z"
          fill="#212529"
        />
      </svg>