<svg
        xmlns="http://www.w3.org/2000/svg"
        width="43"
        height="60"
        viewBox="0 0 43 60"
        fill="none"
      >
        <path
          fillRule="evenodd"
          clipRule="evenodd"
          d="M42.4789 53.2411C42.4789 46.3357 38.4873 38.8007 38.4873 38.8007C36.9306 35.7015 35.1974 32.1979 31.4222 30.121C31.2372 30.0353 31.0571 29.9394 30.8827 29.8339L26.7972 27.9784L24.9932 26.4604C26.4817 25.7952 27.7954 24.7935 28.8308 23.5342C29.8662 22.2749 30.595 20.7924 30.9599 19.2034C31.2316 19.1816 31.475 18.7425 31.475 18.1875V18.0729C31.7111 17.6127 31.9005 17.1301 32.0403 16.6321C32.2579 15.9265 33.0536 13.7569 32.312 13.2174C31.9875 13.0088 31.7326 13.1015 31.5472 13.4453C31.5472 13.4453 32.5295 8.08116 31.784 5.79696C30.087 -0.097665 16.1964 -1.70717 16.1964 1.94189C10.2541 3.61577 11.346 9.26575 12.1701 13.5419C12.1204 13.4665 12.0535 13.4041 11.9749 13.3597C11.8963 13.3153 11.8082 13.2903 11.718 13.2866C11.6278 13.283 11.5381 13.3009 11.4562 13.3387C11.3742 13.3766 11.3024 13.4334 11.2468 13.5045C10.5953 14.1818 11.31 15.8686 11.5533 16.6321C11.6507 17.0999 11.8169 17.5508 12.0465 17.9699C12.0154 18.038 12.0034 18.1132 12.0117 18.1875C12.0117 18.7425 12.304 19.2034 12.613 19.2034H12.6374C12.9339 20.7401 13.5753 22.1894 14.5131 23.4422C15.451 24.6949 16.6609 25.7186 18.0518 26.4359L16.1964 27.981L12.1443 29.8364C12.0155 29.8995 11.6524 30.1017 11.5919 30.1236C7.82438 32.2005 6.05522 35.704 4.5204 38.8033C2.4136 43.3683 1.06248 48.2453 0.519836 53.2437V53.4896C0.554152 54.6078 1.03102 55.6667 1.84563 56.4335C2.66024 57.2003 3.74598 57.6123 4.86422 57.579C5.04048 57.5826 5.21675 57.5753 5.39211 57.5572C6.50135 57.3692 7.57582 57.0145 8.57896 56.5052L21.1047 59.9392C21.124 59.9392 21.1665 59.974 21.1859 59.974H21.285C21.3586 59.9947 21.4352 60.0029 21.5116 59.9984C21.5825 60.0038 21.6537 59.9955 21.7214 59.974H21.8206C21.8386 59.974 21.8734 59.9392 21.9082 59.9392L34.4146 56.4871C35.4221 57.004 36.5023 57.3648 37.6181 57.5572C37.7944 57.5752 37.9715 57.5825 38.1486 57.579C39.2651 57.6106 40.3485 57.1976 41.1607 56.4308C41.9729 55.664 42.4475 54.6061 42.4801 53.4896V53.2437L42.4789 53.2411ZM24.504 26.6535L21.6841 29.436L23.0245 33.9593H20.0514L21.3107 29.436L18.4407 26.5891C20.3867 27.3519 22.545 27.3744 24.5065 26.6522L24.504 26.6535ZM19.9536 56.4382L11.7941 54.1682C12.1454 53.7303 12.383 53.2125 12.486 52.6607C12.589 52.1088 12.5541 51.5401 12.3844 51.005C12.2147 50.47 11.9155 49.9851 11.5133 49.5935C11.1111 49.2018 10.6184 48.9157 10.079 48.7603V39.232L19.9536 41.9978V56.4382ZM32.9725 48.7538C32.2387 48.9412 31.5914 49.3748 31.139 49.9822C30.695 50.5944 30.4612 51.334 30.4725 52.0902C30.4839 52.8464 30.7399 53.5786 31.2021 54.1772L23.0516 56.4382V41.9914L32.9661 39.2256L32.9725 48.7538Z"
          fill="#212529"
        />
      </svg>