<svg
        xmlns="http://www.w3.org/2000/svg"
        width="59"
        height="60"
        viewBox="0 0 59 60"
        fill="none"
      >
        <path
          d="M28.4612 49.3699C28.4859 47.7695 29.1453 46.2445 30.2942 45.1302C31.4431 44.0159 32.9875 43.4035 34.5879 43.4276C34.9783 43.414 35.3688 43.4526 35.749 43.5424V38.7432H29.968C29.8492 38.7457 29.7321 38.7148 29.6299 38.6542C29.5278 38.5935 29.4447 38.5055 29.39 38.4C29.2963 38.1845 29.2569 37.9493 29.2752 37.715C29.4995 37.2113 29.6172 36.6666 29.621 36.1152C29.6007 34.9021 29.1045 33.7456 28.2395 32.8948C27.3744 32.0441 26.2098 31.5674 24.9965 31.5674C23.7832 31.5674 22.6186 32.0441 21.7536 32.8948C20.8885 33.7456 20.3924 34.9021 20.3721 36.1152C20.3641 36.668 20.4828 37.2152 20.7191 37.715C20.7848 37.8241 20.8094 37.9531 20.7883 38.0787C20.7673 38.2043 20.702 38.3183 20.6043 38.4C20.5495 38.5054 20.4663 38.5934 20.3642 38.654C20.2621 38.7146 20.1451 38.7455 20.0263 38.7432H14.2453V53.0286C14.2452 53.9508 14.4282 54.8639 14.7837 55.7148C15.1392 56.5657 15.6602 57.3376 16.3163 57.9856C16.9724 58.6337 17.7506 59.145 18.6058 59.49C19.4611 59.835 20.3763 60.0067 21.2984 59.9953H35.7477V55.3096C35.3675 55.3994 34.977 55.438 34.5866 55.4244C32.9749 55.4225 31.4286 54.7862 30.2823 53.6532C29.136 52.5202 28.4818 50.9815 28.4612 49.3699Z"
          fill="#212529"
        />
        <path
          d="M15.0502 25.9417C13.9783 24.7979 13.3952 23.2809 13.4251 21.7136C13.4549 20.1464 14.0953 18.6526 15.2099 17.5505C16.3246 16.4483 17.8253 15.8247 19.3928 15.8125C20.9603 15.8002 22.4707 16.4003 23.6024 17.485C23.8958 17.7374 24.1324 18.0491 24.2965 18.3997L27.7669 14.9654L23.6024 10.8563C23.515 10.7668 23.4489 10.6587 23.4089 10.5401C23.3689 10.4215 23.3561 10.2955 23.3714 10.1713C23.4863 9.94293 23.6024 9.71458 23.8346 9.71458C24.5696 9.49179 25.2425 9.1004 25.7995 8.57155C26.2389 8.1686 26.5816 7.67152 26.8019 7.11747C27.0221 6.56343 27.1144 5.96674 27.0715 5.37205C27.03 4.13487 26.5366 2.95579 25.6847 2.05774C24.7868 1.19643 23.5968 0.706036 22.3528 0.684745C21.1089 0.663454 19.9028 1.11285 18.976 1.94293C18.4408 2.48962 18.0428 3.15548 17.8149 3.88584C17.7001 4.11419 17.584 4.34255 17.3531 4.34255C17.1208 4.45737 16.8899 4.34255 16.659 4.1142L12.5074 0L2.33349 10.0629C1.67401 10.6976 1.14961 11.4591 0.79179 12.3015C0.433968 13.144 0.250167 14.0501 0.251301 14.9654C0.237441 15.8841 0.415291 16.7957 0.7736 17.6418C1.13191 18.4879 1.66277 19.25 2.33223 19.8794L12.5061 29.9423L15.9739 26.5145C15.6281 26.5132 15.3972 26.2848 15.0502 25.9417Z"
          fill="#212529"
        />
        <path
          d="M54.0075 39.8852C53.9879 41.4976 53.3338 43.0374 52.1871 44.171C51.0404 45.3047 49.4933 45.9411 47.8807 45.9423C47.0883 45.9394 46.3042 45.7805 45.5733 45.4745C44.8423 45.1685 44.1787 44.7215 43.6205 44.159C43.0624 43.5965 42.6205 42.9296 42.3201 42.1963C42.0198 41.463 41.8669 40.6777 41.8701 39.8852C41.851 39.5006 41.8897 39.1153 41.9849 38.7422H37.1302V44.4561C37.132 44.5744 37.1004 44.6908 37.039 44.7919C36.9776 44.893 36.8889 44.9747 36.7832 45.0276C36.5648 45.121 36.3272 45.1604 36.0904 45.1425C35.5794 44.9199 35.0286 44.8032 34.4713 44.7993C33.2887 44.7877 32.1474 45.2339 31.2862 46.0445C30.4251 46.8551 29.9108 47.9674 29.851 49.1485C29.7912 50.3296 30.1905 51.4882 30.9653 52.3816C31.7401 53.2751 32.8304 53.8344 34.0081 53.9423H34.4713C35.0298 53.9503 35.5831 53.833 36.0904 53.5992H36.3213C36.4839 53.5824 36.6473 53.623 36.7832 53.714C36.8889 53.7669 36.9776 53.8486 37.039 53.9497C37.1004 54.0508 37.132 54.1672 37.1302 54.2855V59.9994H51.5795C52.5016 60.0109 53.4168 59.8391 54.272 59.4942C55.1273 59.1492 55.9055 58.6378 56.5616 57.9898C57.2177 57.3417 57.7386 56.5699 58.0941 55.7189C58.4496 54.868 58.6326 53.955 58.6326 53.0328V38.7422H53.8926C53.9933 39.1143 54.0322 39.5005 54.0075 39.8852Z"
          fill="#212529"
        />
        <path
          d="M51.5828 15.9997H37.1335V20.8003C37.7292 20.6053 38.357 20.5277 38.9822 20.5719C40.5922 20.6123 42.1227 21.2801 43.2472 22.4331C44.3716 23.586 45.0009 25.1327 45.0009 26.7432C45.0009 28.3537 44.3716 29.9004 43.2472 31.0533C42.1227 32.2063 40.5922 32.8742 38.9822 32.9145C38.3603 32.8948 37.7415 32.8184 37.1335 32.6861V37.257H42.9132C43.032 37.2545 43.1491 37.2854 43.2513 37.346C43.3534 37.4067 43.4365 37.4947 43.4912 37.6002L43.6073 37.715V38.1717C43.4746 38.5009 43.3962 38.8495 43.3751 39.2038V39.7753C43.3954 40.9884 43.8915 42.145 44.7565 42.9957C45.6215 43.8464 46.7862 44.3231 47.9995 44.3231C49.2128 44.3231 50.3775 43.8464 51.2425 42.9957C52.1076 42.145 52.6037 40.9884 52.624 39.7753C52.6322 39.2225 52.5134 38.6752 52.2769 38.1756C52.2109 38.0665 52.1863 37.9375 52.2073 37.8118C52.2284 37.6861 52.2939 37.5721 52.3918 37.4905C52.4472 37.3857 52.5305 37.2982 52.6325 37.2377C52.7344 37.1772 52.8512 37.1459 52.9697 37.1474H58.7494V22.9664C58.7365 22.0383 58.5408 21.1219 58.1736 20.2695C57.8064 19.4171 57.2749 18.6454 56.6094 17.9984C55.9438 17.3515 55.1574 16.842 54.2949 16.499C53.4324 16.1561 52.5109 15.9864 51.5828 15.9997Z"
          fill="#212529"
        />
      </svg>