<svg
        xmlns="http://www.w3.org/2000/svg"
        width="39"
        height="60"
        viewBox="0 0 39 60"
        fill="none"
      >
        <path
          fillRule="evenodd"
          clipRule="evenodd"
          d="M35.4911 51.6415C34.3296 52.3077 33.1134 52.8734 31.8556 53.3325C30.7137 53.7443 29.5426 54.0704 28.3521 54.308C27.1658 54.6151 25.9639 54.8586 24.7516 55.0377C23.6506 55.1476 22.4384 55.286 21.2417 55.286H17.7575C16.5401 55.1476 15.333 55.1476 14.1117 54.916C12.9396 54.7757 11.7757 54.5732 10.625 54.3093C9.3937 54.0801 8.18243 53.7539 7.00252 53.3338C5.77724 52.9058 4.60516 52.3384 3.50937 51.6428C1.9395 50.7978 0.706703 49.4402 0.0162896 47.7965V52.6209C0.775117 54.1304 1.99992 55.3552 3.50937 56.1141C4.60171 56.8476 5.77356 57.4552 7.00252 57.9253C8.18927 58.3214 9.39899 58.645 10.625 58.8943C11.7702 59.209 12.935 59.4471 14.1117 59.6072C15.3216 59.7576 16.5385 59.844 17.7575 59.8659C18.3486 59.9718 18.9492 60.0152 19.5494 59.9953H21.2417C22.4384 59.866 23.6519 59.7456 24.7516 59.6163C25.9607 59.4872 27.1625 59.2963 28.3521 59.0444C29.5773 58.6563 30.7921 58.3057 31.8556 57.9344C33.1123 57.4764 34.3284 56.9138 35.4911 56.2525C36.9699 55.3937 38.1797 54.1391 38.9842 52.63V47.8056C38.2669 49.432 37.0411 50.7817 35.4911 51.6519V51.6415ZM0.121076 9.2969L0.0227647 9.16755V13.9842C0.843353 15.4553 2.05145 16.6733 3.51584 17.5058C4.62166 18.1831 5.79175 18.7496 7.009 19.1967C8.17439 19.6836 9.38891 20.0432 10.6315 20.2693C11.7778 20.5834 12.9422 20.827 14.1182 20.9989C15.3285 21.1433 16.5453 21.2258 17.764 21.2461C18.3568 21.3359 18.9565 21.3718 19.5558 21.3534C20.122 21.368 20.6884 21.3321 21.2481 21.2461C22.4449 21.2279 23.6583 21.1231 24.758 20.9989C25.9723 20.8315 27.1749 20.5878 28.3586 20.2693C29.5476 20.033 30.7184 19.7127 31.8621 19.3106C33.118 18.8508 34.334 18.2882 35.4975 17.6287C36.9778 16.7618 38.1873 15.4998 38.9907 13.9842V8.81821C38.9907 3.9938 30.2876 0 19.5481 0C8.80864 0 0.0124204 3.99509 0.0124204 8.81821C-0.00170393 8.98309 0.0324458 9.14854 0.110731 9.29433L0.121076 9.2969ZM25.599 8.31884L23.0581 7.12987L23.4113 7.00696C23.6775 6.88738 23.9233 6.72671 24.1397 6.53085C24.1397 6.53085 24.1397 6.40149 23.9003 6.28246H23.4087C23.2086 6.27486 23.0095 6.31475 22.8277 6.3989C22.4396 6.63824 22.3413 6.74949 22.3413 6.88145C22.4712 7.22254 22.6341 7.55014 22.8277 7.85954C23.0937 8.15905 23.2586 8.53483 23.2987 8.93338C23.4087 9.05629 23.2987 9.29561 23.1783 9.6721C22.8179 9.9763 22.4067 10.2146 21.9636 10.3759C21.0838 10.8645 20.0911 11.1135 19.0849 11.0978C18.0504 11.1649 17.014 11.0023 16.0498 10.6217L15.0782 11.0978L13.8853 10.4988L14.9669 10.0253C14.7505 9.89232 14.5632 9.71695 14.4162 9.50975C14.2692 9.30254 14.1656 9.06775 14.1117 8.81952C14.1117 8.31754 14.7276 7.85954 15.9321 7.36791L16.412 7.12857L18.7071 8.31754L18.1082 8.56336C17.5092 8.93337 17.0162 9.06532 16.8907 9.16882C16.7963 9.29819 16.8908 9.41853 17.0201 9.53885C17.2543 9.53885 17.3707 9.66823 17.6256 9.66823C17.7614 9.53885 17.9787 9.53884 18.2258 9.40946C18.6169 9.26976 18.9826 9.06747 19.3088 8.81048C19.552 8.6811 19.552 8.44821 19.3088 8.0782C19.0875 7.48178 18.953 7.11951 18.8301 6.87241C18.8561 6.61185 18.9449 6.36149 19.0888 6.14274C19.3893 5.85453 19.7606 5.65099 20.1652 5.55279C20.8303 5.18528 21.587 5.01686 22.3452 5.06763C23.1741 5.05922 23.9956 5.22449 24.7568 5.55279L25.4709 5.17502L26.6741 5.66662L25.9612 6.01983C26.6741 6.38984 27.0467 6.74176 27.0467 7.12083C27.0467 7.36018 26.788 7.71078 26.0777 8.0795C25.9612 8.0795 25.8293 8.20238 25.599 8.30976V8.31884ZM35.4949 18.5913C34.3351 19.258 33.1185 19.8208 31.8595 20.2731C30.7135 20.6728 29.5433 20.9995 28.356 21.2512C27.1705 21.5578 25.9684 21.7958 24.7555 21.9641C23.591 22.1115 22.4192 22.1936 21.2455 22.2099H17.7615C16.544 22.0896 15.337 22.0896 14.1157 21.8502C12.9429 21.7177 11.7787 21.5177 10.629 21.2512C9.39993 21.011 8.18935 20.6841 7.00639 20.2731C5.78302 19.8443 4.61143 19.2802 3.51332 18.5913C1.95242 17.7342 0.722862 16.3799 0.0201589 14.7436V19.5681C0.783614 21.0726 2.00741 22.294 3.51332 23.0547C4.61317 23.7784 5.78346 24.3887 7.00639 24.8763C8.19637 25.2588 9.40559 25.5788 10.629 25.835C11.7761 26.1438 12.9403 26.3853 14.1157 26.5582C15.337 26.6695 16.5453 26.8066 17.7615 26.8066C18.3541 26.8985 18.9536 26.9388 19.5532 26.9269C20.0462 26.9088 20.6478 26.9269 21.2455 26.9269C22.4423 26.8066 23.6558 26.6682 24.7555 26.5582C25.9661 26.4264 27.1681 26.226 28.356 25.9579C29.5812 25.5879 30.796 25.2282 31.8595 24.8763C33.1108 24.3953 34.3258 23.8246 35.4949 23.1686C36.9718 22.3171 38.1817 21.0701 38.9881 19.5681V14.7449C38.2635 16.3669 37.0396 17.7137 35.4949 18.5913ZM35.4949 24.1337C34.3287 24.7928 33.1132 25.3607 31.8595 25.8324C30.796 26.2011 29.5812 26.5556 28.356 26.9243C27.1502 27.152 26.0777 27.2775 24.7555 27.5233C23.6545 27.6281 22.4423 27.7601 21.2455 27.7601H17.7615C16.544 27.7601 15.337 27.6307 14.1157 27.5233C12.9419 27.3432 11.7782 27.1031 10.629 26.804C9.40012 26.5657 8.18955 26.2411 7.00639 25.8324C5.78499 25.3918 4.61406 24.8224 3.51332 24.1337C1.97948 23.2925 0.755307 21.9822 0.0201589 20.3947V25.0949C0.802348 26.6201 2.01757 27.8804 3.51332 28.7175C4.61026 29.4127 5.78196 29.982 7.00639 30.4149C8.20829 30.7707 9.30676 31.129 10.629 31.4978C11.7783 31.7664 12.9426 31.9664 14.1157 32.0968C15.337 32.2262 16.5453 32.3426 17.7615 32.4668H21.2455C22.4423 32.3374 23.6558 32.2275 24.7555 32.0968C25.9663 31.9675 27.1685 31.7675 28.356 31.4978C29.5812 31.129 30.796 30.7694 31.8595 30.4149C33.1174 29.9537 34.3337 29.3858 35.4949 28.7175C36.9788 27.865 38.1901 26.6088 38.9881 25.0949V20.396C38.2315 21.9689 37.0128 23.2734 35.4949 24.135V24.1337ZM35.4949 29.5675C34.3245 30.2217 33.1097 30.7932 31.8595 31.2778C30.7101 31.6608 29.5405 31.98 28.356 32.2339C27.1667 32.4945 25.965 32.6949 24.7555 32.8342C23.6545 33.0606 22.4423 33.0606 21.2455 33.1848H17.7615C16.544 33.0555 15.337 33.0555 14.1157 32.8342C12.9439 32.6939 11.7802 32.4935 10.629 32.2339C9.38294 32.0096 8.16719 31.641 7.00639 31.1355C5.76219 30.7543 4.58409 30.184 3.51332 29.4446C1.95072 28.6347 0.716495 27.3091 0.0201589 25.6927V30.5145C0.84016 31.9861 2.04848 33.2042 3.51332 34.0361C4.61437 34.7222 5.78529 35.289 7.00639 35.7271C8.17094 36.2172 9.38576 36.5781 10.629 36.8035C11.7774 37.1099 12.9412 37.3552 14.1157 37.5383C15.337 37.6547 16.5453 37.779 17.7615 37.779C18.3521 37.888 18.953 37.9314 19.5532 37.9083C20.1203 37.9268 20.6878 37.8834 21.2455 37.779C22.4189 37.7599 23.5905 37.6796 24.7555 37.5383C25.969 37.364 27.1712 37.1186 28.356 36.8035C29.5456 36.5681 30.7165 36.2463 31.8595 35.8409C33.1158 35.382 34.3318 34.8195 35.4949 34.159C36.9756 33.2927 38.1854 32.0306 38.9881 30.5145V25.6927C38.2773 27.3299 37.0506 28.6898 35.4949 29.5649V29.5675ZM35.4949 35.1216C34.3309 35.7802 33.1151 36.3427 31.8595 36.8035C30.7128 37.2002 29.5427 37.526 28.356 37.779C27.1691 38.0835 25.9674 38.3266 24.7555 38.5073C23.6545 38.6147 22.4423 38.7286 21.2455 38.7286H17.7615C16.541 38.6727 15.3242 38.5548 14.1157 38.3754C12.9428 38.2448 11.7786 38.0457 10.629 37.779C9.39954 37.5415 8.18881 37.2155 7.00639 36.8035C5.78341 36.3737 4.61193 35.8096 3.51332 35.1216C1.95319 34.2653 0.723752 32.9125 0.0201589 31.2778V36.0815C0.780576 37.5921 2.00475 38.8194 3.51332 39.5837C4.61161 40.3072 5.78225 40.9142 7.00639 41.395C8.19574 41.7842 9.40502 42.1098 10.629 42.3705C11.7753 42.6779 12.9398 42.913 14.1157 43.0743C15.3258 43.2214 16.5426 43.3078 17.7615 43.333C18.3545 43.4209 18.954 43.456 19.5532 43.4378H21.2455C22.4423 43.333 23.6558 43.1985 24.7555 43.0756C25.9668 42.9496 27.1691 42.7495 28.356 42.4766C29.5812 42.1169 30.796 41.7546 31.8595 41.395C33.1151 40.924 34.3308 40.353 35.4949 39.6873C36.9739 38.8344 38.1842 37.5838 38.9881 36.0777V31.2739C38.2626 32.8944 37.0388 34.241 35.4949 35.1177V35.1216ZM35.4949 40.5554C34.3306 41.2109 33.1148 41.7704 31.8595 42.2282C30.7182 42.6421 29.5469 42.9682 28.356 43.2037C27.167 43.4705 25.9654 43.6769 24.7555 43.8221C23.6545 43.9359 22.4423 44.0563 21.2455 44.1636H17.7615C16.544 44.0563 15.337 43.9359 14.1157 43.8221C12.9436 43.6758 11.7798 43.4694 10.629 43.2037C9.38193 42.992 8.16535 42.6288 7.00639 42.1221C5.76126 41.7475 4.58263 41.18 3.51332 40.4402C1.96368 39.6195 0.733797 38.303 0.0201589 36.7012V41.5205C0.844933 42.9811 2.05273 44.1889 3.51332 45.0137C4.61644 45.698 5.7869 46.2673 7.00639 46.7123C8.17602 47.1896 9.38928 47.5523 10.629 47.7952C11.7338 48.032 12.9099 48.2881 14.1157 48.5055C15.325 48.6594 16.5424 48.7428 17.7615 48.7552C18.3423 48.7552 18.9542 48.8755 19.5532 48.8755C20.0462 48.86 20.6478 48.7552 21.2455 48.7552C22.4196 48.7464 23.592 48.6629 24.7555 48.5055C25.9702 48.3497 27.1731 48.1124 28.356 47.7952C29.5417 47.5421 30.7116 47.2194 31.8595 46.8288C33.1856 46.2194 34.403 45.7459 35.4949 45.1469C36.947 44.2544 38.1489 43.008 38.9881 41.5244V36.7051C38.2651 38.3295 37.0409 39.6797 35.4949 40.558V40.5554ZM35.4949 45.8727C34.3527 46.5729 33.1326 47.1373 31.8595 47.5546C30.7182 48.0013 29.5476 48.3691 28.356 48.6555C27.1502 48.8677 26.0777 49.1161 24.7555 49.2623C23.6545 49.3697 22.4423 49.4745 21.2455 49.4745C20.6895 49.592 20.1212 49.6415 19.5532 49.622C18.9522 49.6467 18.3504 49.5972 17.7615 49.4745C16.544 49.4745 15.337 49.3697 14.1157 49.2623C12.9099 49.1149 11.7338 48.8832 10.629 48.6555C9.30676 48.2959 8.09832 47.9168 7.00639 47.5546C5.78492 47.1212 4.61383 46.5573 3.51332 45.8727C1.98003 45.0248 0.75653 43.7107 0.0201589 42.1208V46.8301C0.800041 48.353 2.01623 49.6088 3.51332 50.4371C4.61748 51.122 5.78769 51.6942 7.00639 52.1448C8.20829 52.5071 9.30676 52.859 10.629 53.2303C12.9813 53.7148 15.3646 54.0343 17.7615 54.1864H21.2455C22.4219 54.139 23.5942 54.0181 24.7555 53.8241C25.9653 53.6901 27.1672 53.4918 28.356 53.2303C29.5594 52.9955 30.7341 52.6316 31.8595 52.1448C33.1116 51.6656 34.3267 51.0948 35.4949 50.4371C36.976 49.588 38.187 48.3376 38.9881 46.8301V42.0043C38.27 43.6352 37.0449 44.991 35.4949 45.8701V45.8727Z"
          fill="#212529"
        />
      </svg>